<mxfile host="Electron" modified="2023-06-07T09:02:37.736Z" agent="Mozilla/5.0 (Windows NT 10.0; Win64; x64) AppleWebKit/537.36 (KHTML, like Gecko) draw.io/21.2.8 Chrome/112.0.5615.165 Electron/24.2.0 Safari/537.36" etag="nq55O4f4WuGOtf6tGDfr" version="21.2.8" type="device">
  <diagram name="페이지-1" id="MZkfYeS1isPlhroMlwsx">
    <mxGraphModel dx="989" dy="582" grid="1" gridSize="10" guides="1" tooltips="1" connect="1" arrows="1" fold="1" page="1" pageScale="1" pageWidth="827" pageHeight="1169" math="0" shadow="0">
      <root>
        <mxCell id="0" />
        <mxCell id="1" parent="0" />
        <mxCell id="Iz-QiyBhGXClDx1Y2VEL-1" value="배열 -&amp;gt; 여러개의 변수를 연속적으로&lt;br&gt;할당하여 사용하기 위한 기능이다." style="rounded=1;whiteSpace=wrap;html=1;strokeColor=#E07A5F;fontColor=#393C56;fillColor=#F2CC8F;" vertex="1" parent="1">
          <mxGeometry x="40" y="40" width="240" height="60" as="geometry" />
        </mxCell>
        <mxCell id="Iz-QiyBhGXClDx1Y2VEL-2" value="지난 시간에 int 형 배열로 뭔가 해봤고,&lt;br&gt;char형 배열로 과제도 했다.&lt;br&gt;&lt;br&gt;char의 배열을 문자형 배열이라고 하고,&lt;br&gt;줄여서 문자열 이라고도 한다." style="rounded=1;whiteSpace=wrap;html=1;strokeColor=#E07A5F;fontColor=#393C56;fillColor=#F2CC8F;" vertex="1" parent="1">
          <mxGeometry x="320" y="40" width="240" height="90" as="geometry" />
        </mxCell>
        <mxCell id="Iz-QiyBhGXClDx1Y2VEL-3" value="char string_[15] = &quot;Good morning!&quot;;&amp;nbsp; //가능" style="rounded=1;whiteSpace=wrap;html=1;strokeColor=#E07A5F;fontColor=#393C56;fillColor=#F2CC8F;" vertex="1" parent="1">
          <mxGeometry x="320" y="160" width="240" height="40" as="geometry" />
        </mxCell>
        <mxCell id="Iz-QiyBhGXClDx1Y2VEL-4" value="char string_[] = &quot;Good morning!&quot;;&amp;nbsp; /가능" style="rounded=1;whiteSpace=wrap;html=1;strokeColor=#E07A5F;fontColor=#393C56;fillColor=#F2CC8F;" vertex="1" parent="1">
          <mxGeometry x="320" y="240" width="240" height="40" as="geometry" />
        </mxCell>
        <mxCell id="Iz-QiyBhGXClDx1Y2VEL-5" value="string_= &quot;Good morning!&quot;;&amp;nbsp; &lt;br&gt;// 선언 이후 대입 불가능" style="rounded=1;whiteSpace=wrap;html=1;strokeColor=#E07A5F;fontColor=#393C56;fillColor=#F2CC8F;" vertex="1" parent="1">
          <mxGeometry x="320" y="320" width="240" height="50" as="geometry" />
        </mxCell>
        <mxCell id="Iz-QiyBhGXClDx1Y2VEL-6" value="NULL 문자" style="rounded=1;whiteSpace=wrap;html=1;strokeColor=#E07A5F;fontColor=#393C56;fillColor=#F2CC8F;" vertex="1" parent="1">
          <mxGeometry x="600" y="40" width="120" height="40" as="geometry" />
        </mxCell>
        <mxCell id="Iz-QiyBhGXClDx1Y2VEL-7" value="일반적으로 문자열의 끝을나타내는 &lt;br&gt;특수한 문자다." style="rounded=1;whiteSpace=wrap;html=1;strokeColor=#E07A5F;fontColor=#393C56;fillColor=#F2CC8F;" vertex="1" parent="1">
          <mxGeometry x="600" y="120" width="230" height="40" as="geometry" />
        </mxCell>
        <mxCell id="Iz-QiyBhGXClDx1Y2VEL-8" value="프로그래밍 언어마다 정의된 값이&lt;br&gt;조금씩 다르지만, C++에서는&amp;nbsp; &quot;\0&quot; 이다.&lt;br&gt;&lt;br&gt;다른 언어를 하다보면 0인 경우도 있고,&lt;br&gt;아예 다른 값인 경우도 있다." style="rounded=1;whiteSpace=wrap;html=1;strokeColor=#E07A5F;fontColor=#393C56;fillColor=#F2CC8F;" vertex="1" parent="1">
          <mxGeometry x="600" y="200" width="230" height="120" as="geometry" />
        </mxCell>
        <mxCell id="Iz-QiyBhGXClDx1Y2VEL-9" value="일반적으로 파일의 끝도 이런 원리로 알 수 있다.&lt;br&gt;파일의 끝을 나타내는 끝 값이 존재한다.&lt;br&gt;&lt;br&gt;이 값이 감지되면 파일을 모두 읽어서 열 수 있다.&lt;br&gt;이 값이 감지되지 않으면 파일이 깨져서 열 수 없다.&lt;br&gt;&lt;br&gt;파일의 끝을 나타내는 값은 파일의 포맷(형식)마다 다르다.&lt;br&gt;그래서 확장자를 맘대로 바꾸면 대부분 파일이 깨진다." style="rounded=1;whiteSpace=wrap;html=1;strokeColor=#E07A5F;fontColor=#393C56;fillColor=#F2CC8F;" vertex="1" parent="1">
          <mxGeometry x="600" y="360" width="320" height="160" as="geometry" />
        </mxCell>
        <mxCell id="Iz-QiyBhGXClDx1Y2VEL-10" value="여태까지 사용한 scanf_ 사용하면 문자열도 입력 받을 수 있다&lt;br&gt;&lt;br&gt;미리 배열을 선언 해두고 해당 배열에 값을 대입하는 방식으로 &lt;br&gt;사용한다.&lt;br&gt;&lt;br&gt;주의할 점이 있는데, 지정한 크기를 넘어서 입력 받으면 안된다.&lt;br&gt;유저가 지정한 크기를 넘어서 입력하면 메모리 상의 다른&lt;br&gt;Stack 또는 Heap 영역 등을 덮어쓰기 때문에 문제가 생길 수 있다.&lt;br&gt;&lt;br&gt;그래서 scanf_ 같은 함수를 현업에서는 딱히 쓰지 않는다." style="rounded=1;whiteSpace=wrap;html=1;strokeColor=#E07A5F;fontColor=#393C56;fillColor=#F2CC8F;" vertex="1" parent="1">
          <mxGeometry x="200" y="560" width="360" height="160" as="geometry" />
        </mxCell>
        <mxCell id="Iz-QiyBhGXClDx1Y2VEL-11" value="함수에는 시그니처가 있다.&lt;br&gt;서로 다르게 선언 혹은 정의된 두 함수의 타입을 구별할 때&lt;br&gt;리턴 타입과 매개변수의 타입, 매개변수의 갯수를 본다.&lt;br&gt;함수 A의 리턴 타입, 매개변수의 갯수, 매개변수의 타입과 순서&lt;br&gt;함수 B의 리턴 타입, 매개변수의 갯수, 매개변수의 타입과 순서&lt;br&gt;가 동일하다면 두 함수의 타입은 (시그니처)는 같다고 본다." style="rounded=1;whiteSpace=wrap;html=1;strokeColor=#E07A5F;fontColor=#393C56;fillColor=#F2CC8F;" vertex="1" parent="1">
          <mxGeometry x="200" y="760" width="360" height="160" as="geometry" />
        </mxCell>
        <mxCell id="Iz-QiyBhGXClDx1Y2VEL-12" value="포인터는 변수의 주소값을 저장하기 위해서 사용한다.&lt;br&gt;" style="rounded=1;whiteSpace=wrap;html=1;strokeColor=#E07A5F;fontColor=#393C56;fillColor=#F2CC8F;" vertex="1" parent="1">
          <mxGeometry x="600" y="560" width="320" height="40" as="geometry" />
        </mxCell>
        <mxCell id="Iz-QiyBhGXClDx1Y2VEL-13" value="변수에는 주소값이 존재한다.&lt;br&gt;변수는 [주소값]과 해당 주소값에 저장되어 있는 &lt;br&gt;[할당된 값]으로 이루어져 있다." style="rounded=1;whiteSpace=wrap;html=1;strokeColor=#E07A5F;fontColor=#393C56;fillColor=#F2CC8F;" vertex="1" parent="1">
          <mxGeometry x="600" y="640" width="320" height="60" as="geometry" />
        </mxCell>
        <mxCell id="Iz-QiyBhGXClDx1Y2VEL-14" value="정수형 포인터는 아래와 같이&lt;br&gt;&lt;br&gt;[데이터 타입] [*] [변수명];&lt;br&gt;int* ptrNumber;&lt;br&gt;선언한다." style="rounded=1;whiteSpace=wrap;html=1;strokeColor=#E07A5F;fontColor=#393C56;fillColor=#F2CC8F;" vertex="1" parent="1">
          <mxGeometry x="960" y="560" width="320" height="80" as="geometry" />
        </mxCell>
        <mxCell id="Iz-QiyBhGXClDx1Y2VEL-15" value="주소값을 대입할 때는 동일한 데이터타입으로 &lt;br&gt;대입해야 하고, 아래와 같이 &amp;amp;기호를 사용한다.&lt;br&gt;&lt;br&gt;ptrNumber = &amp;amp;number&lt;br&gt;이 과정을 프로그래머들은 &quot;참조한다&quot;라고 표현한다." style="rounded=1;whiteSpace=wrap;html=1;strokeColor=#E07A5F;fontColor=#393C56;fillColor=#F2CC8F;" vertex="1" parent="1">
          <mxGeometry x="960" y="680" width="320" height="80" as="geometry" />
        </mxCell>
        <mxCell id="Iz-QiyBhGXClDx1Y2VEL-16" value="int number = 10;" style="rounded=1;whiteSpace=wrap;html=1;strokeColor=#E07A5F;fontColor=#393C56;fillColor=#F2CC8F;" vertex="1" parent="1">
          <mxGeometry x="960" y="480" width="190" height="40" as="geometry" />
        </mxCell>
        <mxCell id="Iz-QiyBhGXClDx1Y2VEL-17" value="주소값이 가지고 있는 실제로 할당된 값에 접근할 때는&lt;br&gt;* 기호를 사용한다.&lt;br&gt;&lt;br&gt;printf(&quot;ptrNumber가 가지고 있는 값 : %d \n&quot;, *ptrNumber);&lt;br&gt;&lt;br&gt;이 과정을 프로그래머들은 &quot;역참조한다&quot; 라고 표현한다." style="rounded=1;whiteSpace=wrap;html=1;strokeColor=#E07A5F;fontColor=#393C56;fillColor=#F2CC8F;" vertex="1" parent="1">
          <mxGeometry x="960" y="800" width="320" height="120" as="geometry" />
        </mxCell>
      </root>
    </mxGraphModel>
  </diagram>
</mxfile>
